<svg version="1.1"
     baseProfile="full"
     width="200" height="200"
     xmlns="http://www.w3.org/2000/svg">
     
  <!--<circle cx="100" cy="100" stroke="black" fill="none" r="33" />-->
          
  <g fill="none" stroke="rgba(100,100,100,.5)" stroke-width="20" stroke-linecap="round">
    <line x1="100" x2="100" y1="20" y2="60" />
    <line x1="129" x2="158" y1="71" y2="42" />
    <line x1="140" x2="180" y1="100" y2="100" />
    <line x1="129" x2="158" y1="129" y2="158" />
    <line x1="100" x2="100" y1="140" y2="180" />
    <line x1="71" x2="42" y1="129" y2="158" />
    <line x1="20" x2="60" y1="100" y2="100" />
    <line x1="71" x2="42" y1="71" y2="42" />
  </g>


  <g fill="none" stroke="white" stroke-width="20" stroke-linecap="round">
    <line x1="100" x2="100" y1="20" y2="60" opacity="0">
    	<animate attributeType="CSS" 
    			attributeName="opacity" 
    			from="1" to="0" 
    			dur="1s" begin="0" 
    			repeatCount="indefinite" />
    </line>
    
    <line x1="129" x2="158" y1="71" y2="42" opacity="0">
    	<animate attributeType="CSS" 
    			attributeName="opacity" 
    			from="1" to="0" 
    			dur="1s" begin="0.125" 
    			repeatCount="indefinite" />
    </line>
    
    <line x1="140" x2="180" y1="100" y2="100" opacity="0">
    	<animate attributeType="CSS" 
    			attributeName="opacity" 
    			from="1" to="0" 
    			dur="1s" begin="0.25" 
    			repeatCount="indefinite" />
    </line>
    
    <line x1="129" x2="158" y1="129" y2="158" opacity="0">
    	<animate attributeType="CSS" 
    			attributeName="opacity" 
    			from="1" to="0" 
    			dur="1s" begin="0.375" 
    			repeatCount="indefinite" />
    </line>
    
    <line x1="100" x2="100" y1="140" y2="180" opacity="0">
    	<animate attributeType="CSS" 
    			attributeName="opacity" 
    			from="1" to="0" 
    			dur="1s" begin="0.5" 
    			repeatCount="indefinite" />
    </line>
    
    <line x1="71" x2="42" y1="129" y2="158" opacity="0">
    	<animate attributeType="CSS" 
    			attributeName="opacity" 
    			from="1" to="0" 
    			dur="1s" begin="0.625" 
    			repeatCount="indefinite" />
    </line>
    
    <line x1="20" x2="60" y1="100" y2="100" opacity="0">
    	<animate attributeType="CSS" 
    			attributeName="opacity" 
    			from="1" to="0" 
    			dur="1s" begin="0.75" 
    			repeatCount="indefinite" />
    </line>
    
    <line x1="71" x2="42" y1="71" y2="42" opacity="0">
    	<animate attributeType="CSS" 
    			attributeName="opacity" 
    			from="1" to="0" 
    			dur="1s" begin="0.875" 
    			repeatCount="indefinite" />
    </line>  
  </g>
</svg>